<svg version="1.1" id="Layer_1" xmlns="http://www.w3.org/2000/svg" xmlns:xlink="http://www.w3.org/1999/xlink" x="0px" y="0px"
	 width="100%" viewBox="0 0 256 256" enable-background="new 0 0 256 256" xml:space="preserve">
<path fill="#4CAF50" opacity="1.000000" stroke="none" 
	d="
M106.000000,1.000002 
	C121.020897,1.000000 136.041794,1.000000 151.387299,1.389990 
	C152.545761,2.183071 153.347672,2.680588 154.218277,2.974919 
	C165.186981,6.683162 176.645294,9.351024 187.032227,14.279185 
	C203.720245,22.196943 217.520676,34.183151 229.212418,48.620041 
	C242.372681,64.870285 250.802292,83.220955 255.066895,103.606796 
	C255.253799,104.500229 256.335236,105.206528 257.000000,106.000000 
	C257.000000,121.020897 257.000000,136.041794 256.610016,151.387268 
	C255.822250,152.380127 255.279495,153.002029 255.048676,153.723694 
	C252.114777,162.896179 249.879517,172.355225 246.192307,181.210831 
	C237.908600,201.106033 224.860382,217.784836 207.604477,230.507919 
	C197.935425,237.637085 186.847504,242.994156 175.976288,248.280685 
	C169.930267,251.220779 165.625656,248.538849 163.578613,242.098099 
	C155.844986,217.765503 148.184647,193.409531 140.544586,169.047348 
	C138.577011,162.773224 139.711121,159.767975 145.161560,155.957474 
	C157.179916,147.555267 163.111572,134.465897 159.732361,121.795448 
	C156.594727,110.030777 149.043930,101.613358 137.022125,98.688271 
	C126.243690,96.065727 115.995895,98.133362 107.570442,105.966911 
	C93.498871,119.049904 93.936745,143.476166 112.504295,155.843979 
	C118.449814,159.804276 119.399635,162.702103 117.374283,169.171097 
	C109.941307,192.912079 102.317352,216.594696 95.088753,240.397522 
	C92.091675,250.266495 86.394745,250.646927 78.875854,247.341827 
	C59.722843,238.922684 43.248768,226.995163 29.949856,210.595001 
	C16.332022,193.801544 7.094434,175.112305 2.913787,153.898666 
	C2.769875,153.168427 1.659766,152.628586 1.000001,152.000000 
	C1.000000,136.979111 1.000000,121.958214 1.389995,106.612686 
	C2.158892,105.785919 2.785843,105.326591 2.880951,104.775482 
	C6.738861,82.420464 16.383648,62.659107 31.067654,45.645172 
	C50.321278,23.336557 74.466721,8.766805 103.607124,2.932600 
	C104.498016,2.754235 105.206490,1.664723 106.000000,1.000002 
z"/>
<path fill="#000000" opacity="1.000000" stroke="none" 
	d="
M1.000001,152.468658 
	C1.659766,152.628586 2.769875,153.168427 2.913787,153.898666 
	C7.094434,175.112305 16.332022,193.801544 29.949856,210.595001 
	C43.248768,226.995163 59.722843,238.922684 78.875854,247.341827 
	C86.394745,250.646927 92.091675,250.266495 95.088753,240.397522 
	C102.317352,216.594696 109.941307,192.912079 117.374283,169.171097 
	C119.399635,162.702103 118.449814,159.804276 112.504295,155.843979 
	C93.936745,143.476166 93.498871,119.049904 107.570442,105.966911 
	C115.995895,98.133362 126.243690,96.065727 137.022125,98.688271 
	C149.043930,101.613358 156.594727,110.030777 159.732361,121.795448 
	C163.111572,134.465897 157.179916,147.555267 145.161560,155.957474 
	C139.711121,159.767975 138.577011,162.773224 140.544586,169.047348 
	C148.184647,193.409531 155.844986,217.765503 163.578613,242.098099 
	C165.625656,248.538849 169.930267,251.220779 175.976288,248.280685 
	C186.847504,242.994156 197.935425,237.637085 207.604477,230.507919 
	C224.860382,217.784836 237.908600,201.106033 246.192307,181.210831 
	C249.879517,172.355225 252.114777,162.896179 255.048676,153.723694 
	C255.279495,153.002029 255.822250,152.380127 256.610016,151.855927 
	C257.000000,186.967117 257.000000,221.934250 257.000000,256.950684 
	C171.779739,256.950684 86.559433,256.950684 1.000000,256.950684 
	C1.000000,222.313171 1.000000,187.625244 1.000001,152.468658 
z"/>
<path fill="#000000" opacity="1.000000" stroke="none" 
	d="
M105.531342,1.000002 
	C105.206490,1.664723 104.498016,2.754235 103.607124,2.932600 
	C74.466721,8.766805 50.321278,23.336557 31.067654,45.645172 
	C16.383648,62.659107 6.738861,82.420464 2.880951,104.775482 
	C2.785843,105.326591 2.158892,105.785919 1.389995,106.144028 
	C1.000000,71.073059 1.000000,36.146111 1.000000,1.000000 
	C35.687252,1.000000 70.374969,1.000000 105.531342,1.000002 
z"/>
<path fill="#000000" opacity="1.000000" stroke="none" 
	d="
M257.000000,105.531342 
	C256.335236,105.206528 255.253799,104.500229 255.066895,103.606796 
	C250.802292,83.220955 242.372681,64.870285 229.212418,48.620041 
	C217.520676,34.183151 203.720245,22.196943 187.032227,14.279185 
	C176.645294,9.351024 165.186981,6.683162 154.218277,2.974919 
	C153.347672,2.680588 152.545761,2.183071 151.855957,1.389990 
	C186.926941,1.000000 221.853882,1.000000 257.000000,1.000000 
	C257.000000,35.687252 257.000000,70.374969 257.000000,105.531342 
z"/>
</svg>